<svg height="512pt" viewBox="-2 0 511 512" width="512pt" xmlns="http://www.w3.org/2000/svg"><path d="m427.8125 282.929688 42.863281-50.632813c23.964844-28.3125 37.125-64.203125 37.136719-101.296875-.085938-72.316406-58.6875-130.9179688-131-131h-29.175781c-17.847657.710938-35.53125 3.6875-52.625 8.863281-82.253907 23.511719-105.925781 103.472657-106.894531 106.863281l-2.664063 9.34375 9.679687.800782c1.359376.121094 10.847657.890625 24.679688 1.121094v22.824218l-34.71875 69.75 34.71875 17.378906v59.054688h64v69.601562l-80 120v26.398438h16v-21.601562l76.351562-114.527344c18.265626-.417969 36.441407-2.695313 54.246094-6.800782l19.800782 59.425782-70.398438 43.023437v40.480469h16v-31.503906l64-39.121094 64 39.121094v31.503906h16v-40.480469l-73.335938-44.800781-20.511718-61.535156c17.722656-4.972656 35.003906-11.394532 51.671875-19.199219l74.175781 90.070313v75.945312h16v-81.679688l-80-97.183593zm-16 48.070312c-35.082031 16.855469-73.140625 26.644531-112 28.800781v-63.800781h11.296875l33.597656-25.601562-9.710937-12.71875-29.296875 22.320312h-69.886719v-52.945312l-29.28125-14.640626 29.28125-58.8125v-26.601562c36.085938-.632812 86.785156-5.863281 112-28.289062v45.289062h16c8.835938 0 16 7.164062 16 16v25.777344c-.265625 6.578125-3.734375 12.609375-9.289062 16.144531-9.234376 6.539063-14.722657 17.160156-14.710938 28.476563v13.722656l56 40zm-40-95.121094v-5.480468c-.011719-6.113282 2.945312-11.855469 7.925781-15.398438 9.839844-6.503906 15.851563-17.429688 16.074219-29.222656v-25.777344c0-17.671875-14.328125-32-32-32v-64h-16c.113281 6.609375-2.113281 13.042969-6.289062 18.167969-21.945313 27.886719-96.710938 30.28125-134.511719 28.464843 8.6875-20.800781 34.761719-69.90625 92.367187-86.402343 15.761719-4.785157 32.070313-7.550781 48.527344-8.230469h28.90625c63.484375.070312 114.929688 51.515625 115 115-.011719 33.304688-11.828125 65.53125-33.34375 90.953125l-40 47.253906zm0 0"/><path d="m.5 367.382812 139.929688 139.929688 34.695312-34.695312-139.929688-139.929688zm139.929688 117.304688-117.304688-117.304688 12.070312-12.070312 117.304688 117.304688zm0 0"/><path d="m59.8125 312h16v16h-16zm0 0"/><path d="m157.507812 175.058594 31.878907-35.871094 11.953125 10.625-31.878906 35.871094zm0 0"/><path d="m109.671875 228.875 31.890625-35.875 11.953125 10.625-31.890625 35.875zm0 0"/><path d="m61.835938 282.691406 31.886718-35.875 11.953125 10.625-31.890625 35.875zm0 0"/><path d="m161.828125 266.5625 38.632813-17.820312 6.703124 14.53125-38.632812 17.820312zm0 0"/><path d="m96.464844 296.734375 43.589844-20.121094 6.703124 14.527344-43.585937 20.121094zm0 0"/><path d="m162.792969 321.515625 47.804687-4.351563 1.449219 15.933594-47.800781 4.351563zm0 0"/><path d="m234.488281 314.996094 32.59375-2.960938 1.449219 15.933594-32.59375 2.960938zm0 0"/><path d="m91.085938 328.023438 47.804687-4.34375 1.449219 15.933593-47.804688 4.34375zm0 0"/></svg>